PathFileType	4	(X/Y/Z)	C:\Users\dbl\Desktop\20210112\20210112\bx_n_0_501.trc
DataRate	CameraRate	NumFrames	NumMarkers	Units	OrigDataRate	OrigDataStartFrame	OrigNumFrames
50.00	50.00	       11	43	mm	50.00	297	       339
Frame#	Time	Top.Head			R.Acromium			L.Acromium			Sternum			R.ASIS			L.ASIS			V.Sacral			R.Thigh.Upper			R.Thigh.Front			R.Thigh.Rear			R.Knee.Lat			R.Knee.Med			R.Shank.Upper			R.Shank.Front			R.Shank.Rear			R.Ankle.Lat			R.Midfoot.Lat			R.Toe.Lat			R.Toe.Tip			R.Toe.Med			R.Ankle.Med			R.Midfoot.Sup			R.Heel			L.Thigh.Upper			L.Thigh.Front			L.Thigh.Rear			L.Knee.Lat			L.Knee.Med			L.Shank.Upper			L.Shank.Front			L.Shank.Rear			L.Ankle.Lat			L.Midfoot.Lat			L.Toe.Lat			L.Toe.Tip			L.Toe.Med			L.Ankle.Med			L.Midfoot.Sup			L.Heel			origin1 front left			origin2 front right			origin 3 back right			origin 4 back leftt			
		X1	Y1	Z1	X2	Y2	Z2	X3	Y3	Z3	X4	Y4	Z4	X5	Y5	Z5	X6	Y6	Z6	X7	Y7	Z7	X8	Y8	Z8	X9	Y9	Z9	X10	Y10	Z10	X11	Y11	Z11	X12	Y12	Z12	X13	Y13	Z13	X14	Y14	Z14	X15	Y15	Z15	X16	Y16	Z16	X17	Y17	Z17	X18	Y18	Z18	X19	Y19	Z19	X20	Y20	Z20	X21	Y21	Z21	X22	Y22	Z22	X23	Y23	Z23	X24	Y24	Z24	X25	Y25	Z25	X26	Y26	Z26	X27	Y27	Z27	X28	Y28	Z28	X29	Y29	Z29	X30	Y30	Z30	X31	Y31	Z31	X32	Y32	Z32	X33	Y33	Z33	X34	Y34	Z34	X35	Y35	Z35	X36	Y36	Z36	X37	Y37	Z37	X38	Y38	Z38	X39	Y39	Z39	X40	Y40	Z40	X41	Y41	Z41	X42	Y42	Z42	X43	Y43	Z43	

297	5.920	-747.88983	103.99966	1853.90747	-727.57751	-84.13134	1546.29138	-757.21289	275.67899	1530.60327	-614.54547	96.49418	1363.99231	-599.82269	-13.77804	1057.02100	-613.14258	231.42319	1068.43542	-807.59692	80.69878	1058.94019	-655.16846	-80.42180	873.68011	-585.26849	0.72877	807.74487	-670.50818	-66.20778	757.59912	-692.75458	-41.65292	614.54083				-698.99847	-39.63394	567.33191				-742.61591	-56.01728	486.86386				-641.75739	-60.10219	162.88641	-599.94946	-62.17896	159.40666	-547.66461	-12.42518	165.16431	-600.97455	37.16121	168.30348				-678.28717	57.17603	159.22278							-594.61578	208.77119	795.64905				-726.27637	248.11426	643.00177							-676.72369	194.25578	535.05231	-760.56079	256.95630	501.31879																																					
298	5.940	-747.01892	104.15340	1854.12439	-727.03394	-83.91910	1546.09656	-756.65906	275.77548	1530.83630	-614.21521	96.44118	1363.93298	-599.67743	-13.52664	1057.08337	-613.13574	231.76501	1068.45752	-807.67926	81.19360	1058.88391	-655.13367	-80.00613	873.46851	-585.13690	0.82894	807.84399	-670.83447	-65.95887	757.79950	-692.92523	-41.28201	614.36670				-698.94672	-39.25397	567.32654				-742.62811	-55.76352	486.75870				-641.78491	-59.97528	162.77107	-599.71600	-61.62511	159.74834	-547.67114	-12.38147	165.34344	-601.10840	37.04118	168.16447				-678.18646	56.98772	159.63734							-594.77893	209.02196	795.61725				-726.28174	248.58868	643.24585							-676.65692	194.19684	534.98706	-760.38593	257.27206	501.39005																																					
299	5.960	-746.17554	104.05531	1854.07385	-726.62732	-83.71437	1546.21521	-756.29199	275.92407	1530.82471	-613.86420	96.45142	1363.93127	-599.93738	-12.98144	1056.99219	-613.10223	232.20448	1068.54456	-807.75586	81.62605	1058.74182	-655.08563	-79.79410	873.33179	-585.18207	0.97990	807.60052	-670.74408	-65.69444	757.88251	-692.92523	-41.28201	614.36670				-698.63104	-39.03762	567.35211				-742.71912	-55.51212	486.96088				-641.78491	-59.97528	162.77107	-599.46698	-61.78618	159.81593	-547.62689	-12.33426	165.26015	-600.95764	37.00606	168.20082				-678.05292	57.10081	159.16655							-594.89441	209.27985	795.17438				-726.19708	248.91324	643.22754							-676.72369	194.25578	535.05231	-760.33118	257.31689	501.29803																																					
300	5.980	-745.25323	104.38438	1854.21655	-726.25153	-83.34299	1546.02686	-755.64166	276.27792	1531.11035	-613.44086	96.92207	1363.83240	-600.03009	-12.54285	1057.00525	-612.86621	232.59689	1068.62476	-807.61523	81.61335	1058.88513	-655.44421	-79.35922	873.20557	-585.36798	0.98566	807.69702	-670.78180	-65.39143	757.59808	-692.79663	-40.99311	614.41632				-698.77539	-38.75859	567.24603				-742.46454	-55.06293	486.96927				-641.68359	-59.98838	163.01317	-599.68951	-61.86135	159.92447	-547.67743	-12.31724	165.34024	-601.03693	37.07267	168.23177				-678.05292	57.10081	159.16655							-595.39825	209.86568	795.13312				-726.18268	249.16908	643.23993							-676.82184	194.30609	535.04163	-760.25781	257.58127	501.34451																																					
301	6.000	-744.47021	104.20403	1854.30286	-725.75946	-83.27429	1546.02625	-755.29132	276.49124	1531.26941	-613.01410	97.37184	1363.95142	-600.02319	-12.24658	1057.05444	-612.97693	233.12605	1068.63013	-807.95764	82.50134	1059.08484	-655.43890	-79.08728	873.28473	-585.14124	1.24742	807.71234	-670.94867	-65.13158	757.53137	-692.80426	-40.92221	614.50592				-698.92651	-38.11771	567.34357				-742.80939	-54.49051	486.37570				-641.71118	-59.86148	162.89783	-599.73688	-61.94141	159.70923	-547.59662	-12.41605	165.14125	-600.89154	37.12165	168.23804				-678.44293	57.23116	159.47366							-595.48114	209.95738	795.13654				-726.44604	249.31215	643.02136							-676.82184	194.30609	535.04163	-760.52051	257.85904	501.35858																																					
302	6.020	-743.51971	104.67004	1854.53369	-725.17712	-82.94852	1546.07666	-754.95410	276.62729	1531.46387	-612.83228	97.77691	1363.84302	-600.29974	-11.77497	1056.89380	-612.92584	233.39214	1068.60706	-807.88135	83.02400	1059.01233	-655.55243	-78.77230	873.21838	-585.07379	1.45651	807.55969	-671.24213	-64.61423	757.51306	-692.97705	-40.52382	614.48260				-699.00385	-37.77038	567.48199				-742.65448	-54.62642	486.84177				-641.78491	-59.97528	162.77107	-599.80597	-61.59588	159.53235	-547.59662	-12.41605	165.14125	-600.95764	37.00606	168.20082				-678.28302	57.31851	159.32034							-595.15051	210.39754	795.35577				-726.36432	249.40643	642.94745							-676.89050	194.73175	535.02716	-760.48401	257.86078	501.32449																																					
303	6.040	-742.56476	104.65006	1854.55017	-724.84399	-82.90087	1545.91479	-754.31207	276.80655	1531.55579	-612.36218	97.78029	1363.62988	-600.39380	-11.26570	1056.66382	-612.95074	233.64635	1068.66736	-807.62207	83.29828	1058.99878	-655.68286	-78.42175	873.26367	-585.17029	1.87658	807.81317	-671.22394	-64.58362	757.53448	-692.89038	-39.95344	614.38116				-698.91937	-37.81068	567.56879				-742.52008	-54.39967	486.96259				-641.74408	-59.77082	163.08424	-599.71600	-61.62511	159.74834	-547.59662	-12.41605	165.14125	-601.04810	37.21577	168.02362				-678.15833	57.15356	159.31169							-595.06165	210.96877	795.45782				-726.44659	249.74219	642.82971							-676.89410	195.16208	534.95795	-760.51740	258.07773	501.34152																																					
304	6.060	-741.70032	104.54185	1854.51990	-724.41919	-82.86330	1546.13391	-753.78314	277.03568	1531.72510	-612.00195	98.19317	1363.64026	-600.34351	-10.99996	1056.67871	-612.85583	233.89783	1068.73047	-807.71362	83.39121	1058.93799	-655.77472	-77.70340	872.96198	-585.46204	2.26899	807.49713	-671.10974	-64.39951	757.66968	-692.60553	-39.60108	614.33679				-699.02148	-37.39831	567.25348				-742.51788	-54.34522	487.02832				-641.74408	-59.77082	163.08424	-599.67169	-61.77055	159.96846	-547.51788	-12.42070	165.28806	-601.00757	37.22331	167.87633				-678.56372	57.17940	159.27040							-595.14764	211.28436	795.45001				-726.45837	250.01518	643.09180							-677.06775	195.39481	534.91791	-760.65057	258.50656	501.38260																																					
305	6.080	-740.70990	104.55893	1854.41736	-723.80298	-82.51739	1546.11523	-753.50446	276.91302	1531.78772	-611.99860	98.26520	1363.43152	-600.06158	-10.72404	1056.65015	-612.96741	234.13707	1068.46277	-807.55377	83.73037	1058.97900	-655.70673	-77.45227	872.99030	-585.46204	2.26899	807.49713	-671.24268	-64.39569	757.78601	-692.96759	-39.81120	614.59882				-699.10724	-37.22659	567.26038				-742.87439	-53.85239	487.25955				-641.75531	-60.00462	163.34598	-599.47302	-61.62455	160.06961	-547.48871	-12.36823	165.19147	-601.13562	37.51399	167.69766				-678.31091	57.15006	159.10657							-595.02838	211.50427	795.52466				-726.32672	250.24348	643.25043							-676.72766	195.15892	535.11255	-760.66016	258.35437	501.14624																																					
306	6.100	-739.85333	104.57006	1854.57275	-722.97180	-82.47800	1546.09900	-752.90533	277.07315	1531.99255	-611.53644	98.75188	1363.46838	-600.00861	-10.41517	1056.50757	-612.84998	234.35757	1068.27368	-807.70197	84.16133	1059.09961	-655.73279	-77.42925	873.25928	-585.50110	2.58729	807.25000	-671.04852	-64.08961	757.86029	-693.06842	-39.53571	614.91168				-699.32880	-36.93107	567.12219				-742.83447	-53.77834	487.34912				-641.69635	-59.46665	163.08195	-599.61029	-61.60616	160.06895	-547.42499	-12.34047	165.26996	-601.05914	37.52475	167.72543				-678.24286	57.22397	158.79048							-594.95013	211.65565	795.41736				-726.22302	250.35693	642.92657							-677.03552	195.65865	534.77319	-760.65082	258.64221	501.26089																																					
307	6.120	-738.73419	104.69675	1854.64331	-722.64294	-82.51463	1546.09546	-752.46790	277.45740	1532.25769	-611.09259	99.15726	1363.45166	-599.84546	-10.02376	1056.49487	-612.72937	234.64049	1068.36133	-807.28699	84.68746	1058.98962	-655.70276	-77.42364	873.33160	-585.66425	2.79377	807.06067	-671.19519	-63.85715	757.79279	-692.87469	-39.01960	614.77570				-699.22998	-36.79102	567.05090				-742.88501	-53.47811	487.34750				-641.57996	-59.45958	163.24942	-599.83197	-61.33321	160.19188	-547.42499	-12.34047	165.26996	-601.16217	37.50497	167.52698				-678.15533	57.22732	158.64867							-594.72729	211.88344	795.44800				-725.96753	250.42671	642.95959							-677.03552	195.65865	534.77319	-760.75500	258.70755	501.29019																																					
